<svg xmlns="http://www.w3.org/2000/svg" width="30" height="25.547" viewBox="0 0 30 25.547">
  <g id="acceleration" transform="translate(-663.245 -356.501)">
    <path id="Path_1557" data-name="Path 1557" d="M670.949,371.5a7.5,7.5,0,0,1,15,0" fill="none" stroke="#1db854" stroke-linecap="round" stroke-miterlimit="10" stroke-width="1"/>
    <g id="Path_1558" data-name="Path 1558" fill="none" stroke-miterlimit="10">
      <path d="M690.822,363.3a15.108,15.108,0,0,0-17.345-6.066,11.412,11.412,0,0,0-1.954.81,15.109,15.109,0,0,0-8.278,13.458,14.9,14.9,0,0,0,1.173,5.819l.226.538h4.27a1,1,0,0,1,.812.416l2.412,3.357a1,1,0,0,0,.812.416h10.731a1,1,0,0,0,.812-.416l2.413-3.357a1,1,0,0,1,.812-.416h4.128l.227-.538a15.125,15.125,0,0,0,.97-8.337A14.3,14.3,0,0,0,690.822,363.3Z" stroke="none"/>
      <path d="M 678.2442626953125 357.501220703125 C 676.7537231445312 357.501220703125 675.2491455078125 357.7327575683594 673.7731323242188 358.1891479492188 C 673.1546020507812 358.3809204101562 672.5548706054688 358.6295166015625 671.9900512695312 358.92822265625 C 667.1403198242188 361.4899597167969 664.2449951171875 366.1904602050781 664.2449951171875 371.5020141601562 C 664.2449951171875 373.3559875488281 664.6026611328125 375.157470703125 665.3087158203125 376.8590087890625 L 668.9140014648438 376.8590087890625 C 669.5554809570312 376.8590087890625 670.1624145507812 377.1698608398438 670.5381469726562 377.6914978027344 L 672.9500122070312 381.0480041503906 L 683.6809692382812 381.0483093261719 L 686.0945434570312 377.6905517578125 C 686.4696044921875 377.1698608398438 687.0764770507812 376.8590087890625 687.718017578125 376.8590087890625 L 691.1822509765625 376.8590087890625 C 692.1904296875 374.4286804199219 692.4841918945312 371.8326110839844 692.055419921875 369.1409912109375 C 691.7559204101562 367.2566528320312 691.0419311523438 365.4289855957031 689.9905395507812 363.8554992675781 C 688.6647338867188 361.8710632324219 686.8896484375 360.2449951171875 684.8570556640625 359.1530456542969 C 682.8458251953125 358.0725708007812 680.5594482421875 357.5013732910156 678.2446899414062 357.501220703125 L 678.2442626953125 357.501220703125 M 678.2452392578125 356.501220703125 C 683.2711181640625 356.5015869140625 687.9205932617188 358.9570007324219 690.822021484375 363.2999877929688 C 691.9619750976562 365.0060119628906 692.7210083007812 366.9580078125 693.0430297851562 368.9840087890625 C 693.5050048828125 371.8840026855469 693.1710205078125 374.7149963378906 692.072998046875 377.3210144042969 L 691.8460083007812 377.8590087890625 L 687.718017578125 377.8590087890625 C 687.39599609375 377.8590087890625 687.093994140625 378.0140075683594 686.906005859375 378.2749938964844 L 684.4929809570312 381.6319885253906 C 684.3060302734375 381.8930053710938 684.0029907226562 382.0480041503906 683.6810302734375 382.0480041503906 L 672.9500122070312 382.0480041503906 C 672.6279907226562 382.0480041503906 672.3259887695312 381.8930053710938 672.1380004882812 381.6319885253906 L 669.7260131835938 378.2749938964844 C 669.5380249023438 378.0140075683594 669.2360229492188 377.8590087890625 668.9140014648438 377.8590087890625 L 664.6439819335938 377.8590087890625 L 664.4180297851562 377.3210144042969 C 663.6400146484375 375.4760131835938 663.2449951171875 373.5180053710938 663.2449951171875 371.5020141601562 C 663.2449951171875 365.9299926757812 666.2620239257812 360.822998046875 671.5230102539062 358.0440063476562 C 672.14697265625 357.7139892578125 672.802978515625 357.4429931640625 673.4769897460938 357.2340087890625 C 675.0758056640625 356.7396545410156 676.6783447265625 356.5011291503906 678.2452392578125 356.501220703125 Z" stroke="none" fill="#1db854"/>
    </g>
    <g id="Group_834" data-name="Group 834">
      <g id="Ellipse_73" data-name="Ellipse 73" transform="translate(675.044 371.006)" fill="none" stroke="#1db854" stroke-miterlimit="10" stroke-width="1">
        <circle cx="2.897" cy="2.897" r="2.897" stroke="none"/>
        <circle cx="2.897" cy="2.897" r="2.397" fill="none"/>
      </g>
      <line id="Line_74" data-name="Line 74" y1="4.516" x2="2.607" transform="translate(679.246 367.119)" fill="none" stroke="#1db854" stroke-linecap="round" stroke-miterlimit="10" stroke-width="1"/>
    </g>
    <line id="Line_75" data-name="Line 75" y2="2.807" transform="translate(678.449 357.155)" fill="none" stroke="#1db854" stroke-linecap="round" stroke-miterlimit="10" stroke-width="1"/>
    <g id="Group_837" data-name="Group 837">
      <g id="Group_835" data-name="Group 835">
        <line id="Line_76" data-name="Line 76" x1="1.403" y2="2.431" transform="translate(683.845 358.84)" fill="none" stroke="#1db854" stroke-linecap="round" stroke-miterlimit="10" stroke-width="1"/>
        <line id="Line_77" data-name="Line 77" x1="2.343" y2="1.545" transform="translate(688.457 364.671)" fill="none" stroke="#1db854" stroke-linecap="round" stroke-miterlimit="10" stroke-width="1"/>
        <line id="Line_78" data-name="Line 78" x1="2.807" transform="translate(689.892 371.521)" fill="none" stroke="#1db854" stroke-linecap="round" stroke-miterlimit="10" stroke-width="1"/>
      </g>
      <g id="Group_836" data-name="Group 836">
        <line id="Line_79" data-name="Line 79" x2="1.403" y2="2.431" transform="translate(671.242 358.84)" fill="none" stroke="#1db854" stroke-linecap="round" stroke-miterlimit="10" stroke-width="1"/>
        <line id="Line_80" data-name="Line 80" x2="2.343" y2="1.545" transform="translate(665.691 364.671)" fill="none" stroke="#1db854" stroke-linecap="round" stroke-miterlimit="10" stroke-width="1"/>
        <line id="Line_81" data-name="Line 81" x2="2.807" transform="translate(663.792 371.521)" fill="none" stroke="#1db854" stroke-linecap="round" stroke-miterlimit="10" stroke-width="1"/>
      </g>
    </g>
  </g>
</svg>
