<svg xmlns="http://www.w3.org/2000/svg" width="18" height="15.331" viewBox="0 0 18 15.331">
  <g id="car" transform="translate(-669.088 -290.497)">
    <g id="Path_1501" data-name="Path 1501" fill="none" stroke-miterlimit="10">
      <path d="M686.894,298.315l-.988-1.468-.052-.115-1.623-5.326a1.3,1.3,0,0,0-1.21-.9l-5.492-.006H673.2a1.306,1.306,0,0,0-1.248.909l-1.618,5.308-.065.145-.981,1.457a1.429,1.429,0,0,0-.192.931l.194,5.833a.931.931,0,0,0,.92.748h2.814a.663.663,0,0,0,.547-.288l.994-1.451a.18.18,0,0,1,.149-.078h6.757a.179.179,0,0,1,.149.078l1,1.454a.655.655,0,0,0,.54.285h2.819a.932.932,0,0,0,.921-.749l.192-5.831A1.489,1.489,0,0,0,686.894,298.315Z" stroke="none"/>
      <path d="M 685.9017333984375 304.8280029296875 L 686.08642578125 299.2189331054688 C 686.0911254882812 299.0184020996094 686.0835571289062 298.9018859863281 686.0643920898438 298.8733215332031 L 685.0294799804688 297.3356018066406 L 684.916259765625 297.0852355957031 L 683.2742309570312 291.6968688964844 C 683.2420654296875 291.5910034179688 683.1278076171875 291.5106506347656 683.0003051757812 291.5029602050781 L 677.5289916992188 291.4970092773438 L 673.197998046875 291.4970092773438 C 673.0667114257812 291.4970092773438 672.94140625 291.5831604003906 672.9065551757812 291.6976013183594 L 671.270263671875 297.0655212402344 L 671.14453125 297.34619140625 L 670.1166381835938 298.872802734375 C 670.0840454101562 298.9215087890625 670.0853881835938 299.0712280273438 670.09228515625 299.1882934570312 L 670.0934448242188 299.2137451171875 L 670.2802124023438 304.8280029296875 L 672.8446044921875 304.8280029296875 L 673.7415161132812 303.5187377929688 C 673.9622192382812 303.2008056640625 674.3250122070312 303.010986328125 674.7119750976562 303.010986328125 L 681.468994140625 303.010986328125 C 681.8613891601562 303.010986328125 682.22607421875 303.2038879394531 682.4453125 303.5272521972656 L 683.3363647460938 304.8280029296875 L 685.9017333984375 304.8280029296875 M 685.9730224609375 305.8280029296875 L 683.1539916992188 305.8280029296875 C 682.93798828125 305.8280029296875 682.7360229492188 305.7210083007812 682.614013671875 305.5429992675781 L 681.6179809570312 304.0889892578125 C 681.5850219726562 304.0400085449219 681.5289916992188 304.010986328125 681.468994140625 304.010986328125 L 674.7119750976562 304.010986328125 C 674.6519775390625 304.010986328125 674.5969848632812 304.0400085449219 674.56298828125 304.0889892578125 L 673.5689697265625 305.5400085449219 C 673.4459838867188 305.7200012207031 673.2410278320312 305.8280029296875 673.02197265625 305.8280029296875 L 670.2080078125 305.8280029296875 C 669.7570190429688 305.8280029296875 669.3699951171875 305.5130004882812 669.2880249023438 305.0799865722656 L 669.093994140625 299.2470092773438 C 669.072998046875 298.8900146484375 669.10302734375 298.5889892578125 669.2860107421875 298.3160095214844 L 670.2670288085938 296.8590087890625 L 670.3319702148438 296.7139892578125 L 671.9500122070312 291.406005859375 C 672.1129760742188 290.8710021972656 672.6259765625 290.4970092773438 673.197998046875 290.4970092773438 L 677.5289916992188 290.4970092773438 L 683.02099609375 290.5029907226562 C 683.5770263671875 290.5199890136719 684.072021484375 290.8829956054688 684.2310180664062 291.406005859375 L 685.85400390625 296.7319946289062 L 685.906005859375 296.8469848632812 L 686.8939819335938 298.3150024414062 C 687.0780029296875 298.5889892578125 687.094970703125 298.8789978027344 687.0859985351562 299.2479858398438 L 686.8939819335938 305.0790100097656 C 686.8109741210938 305.5130004882812 686.4240112304688 305.8280029296875 685.9730224609375 305.8280029296875 Z" stroke="none" fill="#5e5f5f"/>
    </g>
    <line id="Line_53" data-name="Line 53" x2="5.561" transform="translate(675.31 299.349)" fill="none" stroke="#5e5f5f" stroke-linecap="round" stroke-miterlimit="10" stroke-width="1"/>
  </g>
</svg>
