<svg xmlns="http://www.w3.org/2000/svg" width="18" height="15.33" viewBox="0 0 18 15.33">
  <path id="car_selected" d="M666.42,296.153l-.989-1.469-.051-.114-1.623-5.326a1.3,1.3,0,0,0-1.21-.9l-5.493-.006h-4.33a1.306,1.306,0,0,0-1.248.909l-1.618,5.307-.065.145-.981,1.458a1.42,1.42,0,0,0-.192.93l.193,5.833a.931.931,0,0,0,.921.748h2.814a.661.661,0,0,0,.547-.288l.994-1.45a.18.18,0,0,1,.149-.079h6.757a.181.181,0,0,1,.149.079l1,1.454a.654.654,0,0,0,.54.284H665.5a.931.931,0,0,0,.921-.749l.192-5.83A1.489,1.489,0,0,0,666.42,296.153Zm-6.023,1.533h-5.561a.5.5,0,0,1,0-1H660.4a.5.5,0,0,1,0,1Z" transform="translate(-648.614 -288.335)" fill="#1db854"/>
</svg>
