<svg xmlns="http://www.w3.org/2000/svg" width="18" height="18" viewBox="0 0 18 18">
  <g id="collect" transform="translate(-151.88 -826.258)" fill="none">
    <path d="M169.793,832.934a1.639,1.639,0,0,0-1.3-1.105l-4.275-.655-1.857-3.97a1.625,1.625,0,0,0-2.953,0l-1.857,3.97-4.275.656a1.632,1.632,0,0,0-1.3,1.106,1.667,1.667,0,0,0,.385,1.693l3.138,3.228-.728,4.473a1.68,1.68,0,0,0,.678,1.63,1.637,1.637,0,0,0,1.72.095l3.722-2.066,3.724,2.066a1.612,1.612,0,0,0,1.72-.1A1.678,1.678,0,0,0,167,842.33l-.727-4.473,3.138-3.228a1.669,1.669,0,0,0,.383-1.7Z" stroke="none"/>
    <path d="M 160.8798370361328 827.2579956054688 C 160.6387634277344 827.2579956054688 160.4148712158203 827.4033813476562 160.3096771240234 827.6279907226562 L 158.2260589599609 832.0818481445312 L 153.4206695556641 832.8190307617188 C 153.1833801269531 832.854736328125 152.9943542480469 833.0172729492188 152.9161376953125 833.2505493164062 C 152.8360748291016 833.4920654296875 152.8943481445312 833.753173828125 153.0685272216797 833.9321899414062 L 156.5570220947266 837.5208129882812 L 155.7482299804688 842.4910278320312 C 155.7080535888672 842.736572265625 155.8159637451172 842.9981689453125 156.0169067382812 843.1431274414062 C 156.1194915771484 843.2144775390625 156.2470550537109 843.2537841796875 156.3764495849609 843.2537841796875 C 156.4828186035156 843.2537841796875 156.5868377685547 843.2275390625 156.6735382080078 843.1798706054688 L 160.8804779052734 840.8450927734375 L 165.0880126953125 843.1791381835938 C 165.1815185546875 843.230712890625 165.2850189208984 843.2579956054688 165.3873596191406 843.2579956054688 C 165.5154571533203 843.2579956054688 165.6363525390625 843.218994140625 165.7467651367188 843.1420288085938 C 165.9462280273438 842.998291015625 166.0531463623047 842.7374267578125 166.0127868652344 842.4909057617188 L 165.2045593261719 837.5211181640625 L 168.6927947998047 833.9332885742188 C 168.8668060302734 833.75390625 168.9248199462891 833.4920043945312 168.8454895019531 833.2534790039062 C 168.7669982910156 833.0206909179688 168.5721282958984 832.853515625 168.3375396728516 832.8174438476562 L 163.5343780517578 832.0816040039062 L 161.4512786865234 827.62744140625 C 161.3464508056641 827.4030151367188 161.1221618652344 827.2579956054688 160.8798370361328 827.2579956054688 M 160.8798370361328 826.2579956054688 C 161.5090026855469 826.2579956054688 162.0888519287109 826.6294555664062 162.3573150634766 827.2042236328125 L 164.2138824462891 831.1740112304688 L 168.4889831542969 831.8289794921875 C 169.0950775146484 831.9222412109375 169.5947570800781 832.345703125 169.7930908203125 832.9340209960938 C 169.9922943115234 833.5328369140625 169.8447570800781 834.1820678710938 169.4104766845703 834.629638671875 L 166.2723846435547 837.8573608398438 L 166.9998168945312 842.3303833007812 C 167.1018829345703 842.9537963867188 166.8370208740234 843.5928344726562 166.3248291015625 843.9580688476562 C 166.0450134277344 844.1549072265625 165.7214660644531 844.2579956054688 165.3873596191406 844.2579956054688 C 165.1161499023438 844.2579956054688 164.8457946777344 844.1876220703125 164.6048126220703 844.0546264648438 L 160.8805999755859 841.9887084960938 L 157.1587982177734 844.0542602539062 C 156.6168060302734 844.3521118164062 155.9423065185547 844.3132934570312 155.4391326904297 843.9593505859375 C 154.9245300292969 843.5924072265625 154.6593170166016 842.9530029296875 154.7613677978516 842.3295288085938 L 155.4891662597656 837.85693359375 L 152.3514862060547 834.6292114257812 C 151.9164428710938 834.1820678710938 151.7689208984375 833.5332641601562 151.9669189453125 832.9359130859375 C 152.1652526855469 832.3444213867188 152.6653594970703 831.9214477539062 153.2717895507812 831.8301391601562 L 157.5465698242188 831.1743774414062 L 159.4039001464844 827.2042236328125 C 159.6731414794922 826.6294555664062 160.2521820068359 826.2579956054688 160.8798370361328 826.2579956054688 Z" stroke="none" fill="#8e8e93"/>
  </g>
</svg>
