<svg xmlns="http://www.w3.org/2000/svg" width="18" height="17.328" viewBox="0 0 18 17.328">
  <path id="community_selected" d="M790.514,287.336h-14.4a1.8,1.8,0,0,0-1.8,1.8v10.8a1.8,1.8,0,0,0,1.8,1.8h2.106a.18.18,0,0,1,.178.206l-.322,2.208a.45.45,0,0,0,.738.406l3.164-2.712a.451.451,0,0,1,.293-.108h8.242a1.8,1.8,0,0,0,1.8-1.8v-10.8A1.8,1.8,0,0,0,790.514,287.336Zm-3.138,8.495a4.511,4.511,0,0,1-8.11.255.5.5,0,0,1,.885-.467,3.511,3.511,0,0,0,6.313-.2.5.5,0,0,1,.912.41Z" transform="translate(-774.315 -287.336)" fill="#1db854"/>
</svg>
