<svg xmlns="http://www.w3.org/2000/svg" width="18" height="17.329" viewBox="0 0 18 17.329">
  <g id="community" transform="translate(-794.784 -289.498)">
    <g id="Path_1502" data-name="Path 1502" fill="none" stroke-miterlimit="10">
      <path d="M810.984,289.5h-14.4a1.8,1.8,0,0,0-1.8,1.8v10.8a1.8,1.8,0,0,0,1.8,1.8h2.107a.18.18,0,0,1,.178.206l-.322,2.208a.45.45,0,0,0,.738.407L802.449,304a.447.447,0,0,1,.293-.108h8.242a1.8,1.8,0,0,0,1.8-1.8V291.3A1.8,1.8,0,0,0,810.984,289.5Z" stroke="none"/>
      <path d="M 796.583984375 290.4979858398438 C 796.1428833007812 290.4979858398438 795.7839965820312 290.8568725585938 795.7839965820312 291.2980041503906 L 795.7839965820312 302.0960083007812 C 795.7839965820312 302.537109375 796.1428833007812 302.89599609375 796.583984375 302.89599609375 L 798.6909790039062 302.89599609375 C 799.0339965820312 302.89599609375 799.3594360351562 303.0449523925781 799.5838623046875 303.3046875 C 799.8081665039062 303.5642700195312 799.908203125 303.9078063964844 799.8585205078125 304.2463073730469 L 799.748291015625 305.0024719238281 L 801.7952880859375 303.2472229003906 C 802.0574951171875 303.0207214355469 802.3937377929688 302.89599609375 802.7420043945312 302.89599609375 L 810.9840087890625 302.89599609375 C 811.4251098632812 302.89599609375 811.7839965820312 302.537109375 811.7839965820312 302.0960083007812 L 811.7839965820312 291.2980041503906 C 811.7839965820312 290.8568725585938 811.4251098632812 290.4979858398438 810.9840087890625 290.4979858398438 L 796.583984375 290.4979858398438 M 796.583984375 289.4979858398438 L 810.9840087890625 289.4979858398438 C 811.97802734375 289.4979858398438 812.7839965820312 290.3039855957031 812.7839965820312 291.2980041503906 L 812.7839965820312 302.0960083007812 C 812.7839965820312 303.0899963378906 811.97802734375 303.89599609375 810.9840087890625 303.89599609375 L 802.7420043945312 303.89599609375 C 802.6339721679688 303.89599609375 802.530029296875 303.9339904785156 802.448974609375 304.0039978027344 L 799.2849731445312 306.7170104980469 C 798.9692993164062 306.9879455566406 798.4869995117188 306.7220153808594 798.5469970703125 306.3099975585938 L 798.8690185546875 304.1019897460938 C 798.885009765625 303.9930114746094 798.7999877929688 303.89599609375 798.6909790039062 303.89599609375 L 796.583984375 303.89599609375 C 795.5900268554688 303.89599609375 794.7839965820312 303.0899963378906 794.7839965820312 302.0960083007812 L 794.7839965820312 291.2980041503906 C 794.7839965820312 290.3039855957031 795.5900268554688 289.4979858398438 796.583984375 289.4979858398438 Z" stroke="none" fill="#5e5f5f"/>
    </g>
    <path id="Path_1503" data-name="Path 1503" d="M800.179,298.015a4.01,4.01,0,0,0,7.21-.227" fill="none" stroke="#5e5f5f" stroke-linecap="round" stroke-miterlimit="10" stroke-width="1"/>
  </g>
</svg>
