<svg xmlns="http://www.w3.org/2000/svg" width="36" height="24" viewBox="0 0 36 24">
  <g id="engine_power" transform="translate(-557.399 -348.4)">
    <g id="Path_1553" data-name="Path 1553" fill="none" stroke-miterlimit="10">
      <path d="M589.2,370.026a1.174,1.174,0,0,0,1.174,1.174h.988a1.173,1.173,0,0,0,.83-.344l.864-.864a1.175,1.175,0,0,0,.344-.83v-9.124a1.175,1.175,0,0,0-.344-.83l-.864-.864a1.173,1.173,0,0,0-.83-.344h-.988a1.174,1.174,0,0,0-1.174,1.174Z" stroke="none"/>
      <path d="M 591.3610229492188 370.2000122070312 C 591.4072875976562 370.2000122070312 591.4508666992188 370.181884765625 591.48388671875 370.1488647460938 L 592.347900390625 369.2848510742188 C 592.38037109375 369.2524108886719 592.3989868164062 369.2076110839844 592.3989868164062 369.1619873046875 L 592.3989868164062 360.0379943847656 C 592.3989868164062 359.9923706054688 592.38037109375 359.9476013183594 592.347900390625 359.9151306152344 L 591.4838256835938 359.0510559082031 C 591.450927734375 359.0181274414062 591.4072875976562 359 591.3610229492188 359 L 590.3729858398438 359 C 590.2770385742188 359 590.198974609375 359.0780639648438 590.198974609375 359.1740112304688 L 590.198974609375 370.0260009765625 C 590.198974609375 370.1219482421875 590.2770385742188 370.2000122070312 590.3729858398438 370.2000122070312 L 591.3610229492188 370.2000122070312 M 591.3610229492188 371.2000122070312 L 590.3729858398438 371.2000122070312 C 589.7249755859375 371.2000122070312 589.198974609375 370.6740112304688 589.198974609375 370.0260009765625 L 589.198974609375 359.1740112304688 C 589.198974609375 358.5260009765625 589.7249755859375 358 590.3729858398438 358 L 591.3610229492188 358 C 591.6729736328125 358 591.9710083007812 358.1239929199219 592.1909790039062 358.343994140625 L 593.0549926757812 359.2080078125 C 593.2750244140625 359.4280090332031 593.3989868164062 359.7269897460938 593.3989868164062 360.0379943847656 L 593.3989868164062 369.1619873046875 C 593.3989868164062 369.4729919433594 593.2750244140625 369.7720031738281 593.0549926757812 369.9920043945312 L 592.1909790039062 370.8559875488281 C 591.9710083007812 371.0759887695312 591.6729736328125 371.2000122070312 591.3610229492188 371.2000122070312 Z" stroke="none" fill="#006dea"/>
    </g>
    <g id="Rectangle_512" data-name="Rectangle 512" transform="translate(568.799 348.4)" fill="none" stroke="#006dea" stroke-miterlimit="10" stroke-width="1">
      <rect width="13.2" height="3.6" rx="1.174" stroke="none"/>
      <rect x="0.5" y="0.5" width="12.2" height="2.6" rx="0.674" fill="none"/>
    </g>
    <g id="Path_1554" data-name="Path 1554" fill="none" stroke-miterlimit="10">
      <path d="M573.6,353.2h-3.293a1.175,1.175,0,0,0-.977.523l-1.881,2.821a.572.572,0,0,1-.477.256h-2.4a1.174,1.174,0,0,0-1.174,1.174v9.652a1.174,1.174,0,0,0,1.174,1.174h2.4a.572.572,0,0,1,.477.256l2.05,3.077a.6.6,0,0,0,.5.267h16.826A1.174,1.174,0,0,0,588,371.226V357.974a1.174,1.174,0,0,0-1.174-1.174h-3a.572.572,0,0,1-.477-.256l-1.878-2.819a1.178,1.178,0,0,0-.98-.525H573.6Z" stroke="none"/>
      <path d="M 570.3060302734375 354.2000122070312 C 570.2476806640625 354.2000122070312 570.1934204101562 354.2290649414062 570.1610107421875 354.2777709960938 L 568.2816162109375 357.0963439941406 C 567.9896850585938 357.5369262695312 567.499755859375 357.7999877929688 566.9710083007812 357.7999877929688 L 564.572998046875 357.7999877929688 C 564.47705078125 357.7999877929688 564.3989868164062 357.8780517578125 564.3989868164062 357.9739990234375 L 564.3989868164062 367.6260070800781 C 564.3989868164062 367.721923828125 564.47705078125 367.7999877929688 564.572998046875 367.7999877929688 L 566.9710083007812 367.7999877929688 C 567.499755859375 367.7999877929688 567.9896850585938 368.0630493164062 568.2802124023438 368.5015563964844 L 570.2112426757812 371.3999938964844 L 586.8250122070312 371.3999938964844 C 586.9209594726562 371.3999938964844 586.9990234375 371.3219604492188 586.9990234375 371.2260131835938 L 586.9990234375 357.9739990234375 C 586.9990234375 357.8780517578125 586.9209594726562 357.7999877929688 586.8250122070312 357.7999877929688 L 583.8270263671875 357.7999877929688 C 583.2982788085938 357.7999877929688 582.8082885742188 357.5369567871094 582.5177612304688 357.0984497070312 L 580.6403198242188 354.2802734375 C 580.6067504882812 354.2300109863281 580.5513305664062 354.2000122070312 580.4920043945312 354.2000122070312 L 570.3060302734375 354.2000122070312 M 570.3060302734375 353.2000122070312 L 580.4920043945312 353.2000122070312 C 580.885986328125 353.2000122070312 581.2529907226562 353.3970031738281 581.4719848632812 353.7250061035156 L 583.3499755859375 356.5440063476562 C 583.4559936523438 356.7040100097656 583.635009765625 356.7999877929688 583.8270263671875 356.7999877929688 L 586.8250122070312 356.7999877929688 C 587.4739990234375 356.7999877929688 587.9990234375 357.3259887695312 587.9990234375 357.9739990234375 L 587.9990234375 371.2260131835938 C 587.9990234375 371.8739929199219 587.4739990234375 372.3999938964844 586.8250122070312 372.3999938964844 L 569.9990234375 372.3999938964844 C 569.8001098632812 372.4014587402344 569.6099853515625 372.2999877929688 569.4979858398438 372.1329956054688 L 567.447998046875 369.0559997558594 C 567.3419799804688 368.89599609375 567.1630249023438 368.7999877929688 566.9710083007812 368.7999877929688 L 564.572998046875 368.7999877929688 C 563.9249877929688 368.7999877929688 563.3989868164062 368.2739868164062 563.3989868164062 367.6260070800781 L 563.3989868164062 357.9739990234375 C 563.3989868164062 357.3259887695312 563.9249877929688 356.7999877929688 564.572998046875 356.7999877929688 L 566.9710083007812 356.7999877929688 C 567.1630249023438 356.7999877929688 567.3419799804688 356.7040100097656 567.447998046875 356.5440063476562 L 569.3289794921875 353.7229919433594 C 569.5469970703125 353.39599609375 569.9140014648438 353.2000122070312 570.3060302734375 353.2000122070312 Z" stroke="none" fill="#006dea"/>
    </g>
    <g id="Path_1555" data-name="Path 1555" fill="none" stroke-miterlimit="10">
      <path d="M562.2,357.974a1.174,1.174,0,0,0-1.174-1.174h-1.519a1.171,1.171,0,0,0-.976.523l-.934,1.4a1.181,1.181,0,0,0-.2.652v1.452a1.181,1.181,0,0,0,.2.652l.907,1.357a.577.577,0,0,1,.1.319v4.472a1.174,1.174,0,0,0,1.174,1.174h1.252a1.174,1.174,0,0,0,1.174-1.174Z" stroke="none"/>
      <path d="M 559.5059814453125 357.7999877929688 C 559.4481811523438 357.7999877929688 559.3948364257812 357.828369140625 559.3616943359375 357.8782653808594 L 558.429443359375 359.2746276855469 C 558.4097900390625 359.3042297363281 558.3989868164062 359.3395080566406 558.3989868164062 359.3739929199219 L 558.3989868164062 360.8259887695312 C 558.3989868164062 360.8604736328125 558.4097900390625 360.895751953125 558.4274291992188 360.9223327636719 L 559.33642578125 362.2823791503906 C 559.5081787109375 362.5414428710938 559.5989990234375 362.8428344726562 559.5989990234375 363.1539916992188 L 559.5989990234375 367.6260070800781 C 559.5989990234375 367.721923828125 559.6770629882812 367.7999877929688 559.7730102539062 367.7999877929688 L 561.0250244140625 367.7999877929688 C 561.1209106445312 367.7999877929688 561.198974609375 367.721923828125 561.198974609375 367.6260070800781 L 561.198974609375 357.9739990234375 C 561.198974609375 357.8780517578125 561.1209106445312 357.7999877929688 561.0250244140625 357.7999877929688 L 559.5059814453125 357.7999877929688 M 559.5059814453125 356.7999877929688 L 561.0250244140625 356.7999877929688 C 561.6740112304688 356.7999877929688 562.198974609375 357.3259887695312 562.198974609375 357.9739990234375 L 562.198974609375 367.6260070800781 C 562.198974609375 368.2739868164062 561.6740112304688 368.7999877929688 561.0250244140625 368.7999877929688 L 559.7730102539062 368.7999877929688 C 559.125 368.7999877929688 558.5989990234375 368.2739868164062 558.5989990234375 367.6260070800781 L 558.5989990234375 363.1539916992188 C 558.5989990234375 363.0409851074219 558.5659790039062 362.9299926757812 558.5029907226562 362.8349914550781 L 557.5960083007812 361.4779968261719 C 557.468017578125 361.2850036621094 557.3989868164062 361.0580139160156 557.3989868164062 360.8259887695312 L 557.3989868164062 359.3739929199219 C 557.3989868164062 359.1419982910156 557.468017578125 358.9150085449219 557.5960083007812 358.7219848632812 L 558.530029296875 357.322998046875 C 558.7470092773438 356.9960021972656 559.114013671875 356.7999877929688 559.5059814453125 356.7999877929688 Z" stroke="none" fill="#006dea"/>
    </g>
    <g id="Path_1556" data-name="Path 1556" fill="none" stroke-miterlimit="10">
      <path d="M580.641,362.394a.6.6,0,0,0-.442-.194h-2.852l1.038-4.67a.6.6,0,0,0-.991-.572l-7.2,6.6a.6.6,0,0,0,.405,1.042h2.852l-1.037,4.67a.6.6,0,0,0,.991.572l7.2-6.6A.6.6,0,0,0,580.641,362.394Z" stroke="none"/>
      <path d="M 577.133056640625 358.5537719726562 L 571.6280517578125 363.6000061035156 L 574.6973876953125 363.6000061035156 L 573.6655883789062 368.24658203125 L 579.1708984375 363.2000122070312 L 576.1002807617188 363.2000122070312 L 577.133056640625 358.5537719726562 M 577.7994384765625 356.7998962402344 C 577.8425903320312 356.7998962402344 577.8860473632812 356.8045349121094 577.9290161132812 356.8139953613281 C 578.2529907226562 356.885986328125 578.4569702148438 357.2070007324219 578.385009765625 357.5299987792969 L 577.3469848632812 362.2000122070312 L 580.198974609375 362.2000122070312 C 580.3670043945312 362.2000122070312 580.5280151367188 362.2699890136719 580.6409912109375 362.3940124511719 C 580.864990234375 362.6390075683594 580.8489990234375 363.0180053710938 580.60498046875 363.2420043945312 L 573.405029296875 369.8420104980469 C 573.260009765625 369.9750366210938 573.059814453125 370.028076171875 572.8690185546875 369.9859924316406 C 572.5460205078125 369.9140014648438 572.3419799804688 369.5929870605469 572.4140014648438 369.2699890136719 L 573.4509887695312 364.6000061035156 L 570.5989990234375 364.6000061035156 C 570.4310302734375 364.6000061035156 570.27099609375 364.5289916992188 570.156982421875 364.406005859375 C 569.9329833984375 364.1610107421875 569.948974609375 363.7820129394531 570.1939697265625 363.5580139160156 L 577.3939819335938 356.9580078125 C 577.505615234375 356.8549194335938 577.6508178710938 356.7998962402344 577.7994384765625 356.7998962402344 Z" stroke="none" fill="#006dea"/>
    </g>
    <g id="Group_831" data-name="Group 831">
      <line id="Line_67" data-name="Line 67" x2="1.75" transform="translate(561.883 361.6)" fill="none" stroke="#006dea" stroke-miterlimit="10" stroke-width="1"/>
      <line id="Line_68" data-name="Line 68" x2="1.75" transform="translate(561.883 363.833)" fill="none" stroke="#006dea" stroke-miterlimit="10" stroke-width="1"/>
    </g>
    <g id="Group_832" data-name="Group 832">
      <line id="Line_69" data-name="Line 69" y2="1.75" transform="translate(576.516 351.725)" fill="none" stroke="#006dea" stroke-miterlimit="10" stroke-width="1"/>
      <line id="Line_70" data-name="Line 70" y2="1.75" transform="translate(574.282 351.725)" fill="none" stroke="#006dea" stroke-miterlimit="10" stroke-width="1"/>
    </g>
    <line id="Line_71" data-name="Line 71" x2="1.75" transform="translate(587.449 363.142)" fill="none" stroke="#006dea" stroke-miterlimit="10" stroke-width="1"/>
    <line id="Line_72" data-name="Line 72" x2="1.75" transform="translate(587.449 366.875)" fill="none" stroke="#006dea" stroke-miterlimit="10" stroke-width="1"/>
    <line id="Line_73" data-name="Line 73" y2="14.25" transform="translate(585.112 357.438)" fill="none" stroke="#006dea" stroke-miterlimit="10" stroke-width="1"/>
  </g>
</svg>
