<svg xmlns="http://www.w3.org/2000/svg" width="55" height="55" viewBox="0 0 55 55">
  <g id="icon-google" transform="translate(-78 -640)">
    <circle id="Ellipse_1" data-name="Ellipse 1" cx="27.5" cy="27.5" r="27.5" transform="translate(78 640)" fill="#f1f2f3"/>
    <g id="search" transform="translate(93 655)">
      <path id="Path_1482" data-name="Path 1482" d="M5.543,146.629l-.871,3.25-3.182.067A12.528,12.528,0,0,1,1.4,138.268h0l2.833.519L5.473,141.6a7.464,7.464,0,0,0,.07,5.025Z" transform="translate(0 -131.513)" fill="#fbbb00"/>
      <path id="Path_1483" data-name="Path 1483" d="M273.641,208.176a12.5,12.5,0,0,1-4.458,12.089h0l-3.568-.182-.505-3.153a7.454,7.454,0,0,0,3.207-3.806h-6.687v-4.947h12.013Z" transform="translate(-248.847 -198.006)" fill="#518ef8"/>
      <path id="Path_1484" data-name="Path 1484" d="M49.353,316.552h0a12.51,12.51,0,0,1-18.845-3.826l4.053-3.318a7.438,7.438,0,0,0,10.718,3.808Z" transform="translate(-29.019 -294.294)" fill="#28b446"/>
      <path id="Path_1485" data-name="Path 1485" d="M47.714,2.879,43.663,6.2A7.437,7.437,0,0,0,32.7,10.09L28.625,6.755h0a12.509,12.509,0,0,1,19.09-3.876Z" transform="translate(-27.226)" fill="#f14336"/>
    </g>
  </g>
</svg>
