<svg xmlns="http://www.w3.org/2000/svg" width="18" height="18" viewBox="0 0 18 18">
  <g id="icon" transform="translate(-716.093 -287)">
    <g id="Path_1506" data-name="Path 1506" fill="none" stroke-miterlimit="10">
      <path d="M733.255,291.986l-7.245-4.7a1.761,1.761,0,0,0-1.931,0l-7.155,4.694a1.859,1.859,0,0,0-.831,1.556v9.612a1.824,1.824,0,0,0,1.8,1.847h14.4a1.824,1.824,0,0,0,1.8-1.847v-9.605A1.86,1.86,0,0,0,733.255,291.986Z" stroke="none"/>
      <path d="M 725.0481567382812 287.0001220703125 L 725.0481567382812 288.0001220703125 C 724.8995361328125 288.0001220703125 724.754150390625 288.0439758300781 724.6275024414062 288.1271057128906 L 717.4727783203125 292.8209838867188 C 717.2349853515625 292.97705078125 717.093017578125 293.2462158203125 717.093017578125 293.5409851074219 L 717.093017578125 303.1530151367188 C 717.093017578125 303.6200561523438 717.451904296875 304 717.8930053710938 304 L 732.2930297851562 304 C 732.734130859375 304 733.093017578125 303.6200561523438 733.093017578125 303.1530151367188 L 733.093017578125 293.5480041503906 C 733.093017578125 293.2507019042969 732.949951171875 292.9802551269531 732.7107543945312 292.8249206542969 L 725.4655151367188 288.1247863769531 C 725.3399047851562 288.0432434082031 725.1956176757812 288.0001525878906 725.0482177734375 288.0001220703125 L 725.0481567382812 287.0001220703125 M 725.0482788085938 287.0001220703125 C 725.3822631835938 287.0001525878906 725.7163696289062 287.0953979492188 726.010009765625 287.2860107421875 L 733.2550048828125 291.9859924316406 C 733.7769775390625 292.3250122070312 734.093017578125 292.9140014648438 734.093017578125 293.5480041503906 L 734.093017578125 303.1530151367188 C 734.093017578125 304.1730041503906 733.2869873046875 305 732.2930297851562 305 L 717.8930053710938 305 C 716.8989868164062 305 716.093017578125 304.1730041503906 716.093017578125 303.1530151367188 L 716.093017578125 293.5409851074219 C 716.093017578125 292.9110107421875 716.406005859375 292.3250122070312 716.9240112304688 291.9849853515625 L 724.0789794921875 287.2909851074219 C 724.3743286132812 287.0971069335938 724.7112426757812 287.0000915527344 725.0482788085938 287.0001220703125 Z" stroke="none" fill="#8e8e93"/>
    </g>
    <line id="Line_54" data-name="Line 54" x2="6.167" transform="translate(722.01 300.068)" fill="none" stroke="#8e8e93" stroke-linecap="round" stroke-miterlimit="10" stroke-width="1"/>
  </g>
</svg>
