<svg xmlns="http://www.w3.org/2000/svg" width="17.739" height="18" viewBox="0 0 17.739 18">
  <g id="like" transform="translate(-860.941 -282.525)">
    <g id="Path_1511" data-name="Path 1511" fill="none" stroke-miterlimit="10">
      <path d="M875.08,300.525H865.016V289.889l3.355-6.873a.716.716,0,0,1,.736-.491,3.283,3.283,0,0,1,3.273,3.273v2.454h3.845a2.455,2.455,0,0,1,2.455,2.455v.409l-1.145,7.363A2.4,2.4,0,0,1,875.08,300.525Z" stroke="none"/>
      <path d="M 875.0800170898438 299.5249938964844 C 875.8491821289062 299.5249938964844 876.4511108398438 299.0404357910156 876.5437622070312 298.3466186523438 L 876.546875 298.3253479003906 L 877.6799926757812 291.0387268066406 L 877.6799926757812 290.7070007324219 C 877.6799926757812 289.9047241210938 877.0272827148438 289.2520141601562 876.2249755859375 289.2520141601562 L 871.3800048828125 289.2520141601562 L 871.3800048828125 285.7980041503906 C 871.3800048828125 284.5871276855469 870.4282836914062 283.5943603515625 869.2335815429688 283.5284729003906 L 866.0159912109375 290.1200561523438 L 866.0159912109375 299.5249938964844 L 875.0800170898438 299.5249938964844 M 875.0800170898438 300.5249938964844 L 865.0159912109375 300.5249938964844 L 865.0159912109375 289.8890075683594 L 868.3709716796875 283.0159912109375 C 868.4530029296875 282.6889953613281 868.780029296875 282.5249938964844 869.1069946289062 282.5249938964844 C 870.906982421875 282.5249938964844 872.3800048828125 283.9979858398438 872.3800048828125 285.7980041503906 L 872.3800048828125 288.2520141601562 L 876.2249755859375 288.2520141601562 C 877.5809936523438 288.2520141601562 878.6799926757812 289.3510131835938 878.6799926757812 290.7070007324219 L 878.6799926757812 291.1159973144531 L 877.5349731445312 298.47900390625 C 877.3709716796875 299.7070007324219 876.3070068359375 300.5249938964844 875.0800170898438 300.5249938964844 Z" stroke="none" fill="#8e8e93"/>
    </g>
    <g id="Rectangle_473" data-name="Rectangle 473" transform="translate(860.941 289.886)" fill="none" stroke="#8e8e93" stroke-miterlimit="10" stroke-width="1">
      <path d="M1.5,0H5.073a0,0,0,0,1,0,0V10.639a0,0,0,0,1,0,0H1.5A1.5,1.5,0,0,1,0,9.139V1.5A1.5,1.5,0,0,1,1.5,0Z" stroke="none"/>
      <path d="M1.5.5H4.573a0,0,0,0,1,0,0v9.639a0,0,0,0,1,0,0H1.5a1,1,0,0,1-1-1V1.5A1,1,0,0,1,1.5.5Z" fill="none"/>
    </g>
  </g>
</svg>
