<svg xmlns="http://www.w3.org/2000/svg" width="36" height="23.999" viewBox="0 0 36 23.999">
  <g id="max_torque" transform="translate(-699.1 -360.056)">
    <g id="Path_1559" data-name="Path 1559" fill="none" stroke-miterlimit="10">
      <path d="M734.316,366.545l.3.018a.466.466,0,0,0,.358-.139.452.452,0,0,0,.122-.365,6.766,6.766,0,0,0-.935-2.725.455.455,0,0,0-.319-.214.448.448,0,0,0-.369.107l-.226.2a.706.706,0,0,1-.509.176.693.693,0,0,1-.483-.236.7.7,0,0,1-.176-.507.689.689,0,0,1,.237-.483l.225-.2a.45.45,0,0,0-.018-.693,6.88,6.88,0,0,0-2.594-1.268.442.442,0,0,0-.376.075.462.462,0,0,0-.186.336l-.018.3a.7.7,0,0,1-1.4-.085l.018-.3a.463.463,0,0,0-.14-.358.458.458,0,0,0-.365-.121,6.822,6.822,0,0,0-2.734.932.453.453,0,0,0-.215.318.445.445,0,0,0,.107.368l.2.225a.7.7,0,0,1-.569,1.164.688.688,0,0,1-.484-.235l-.2-.225a.453.453,0,0,0-.7.017,6.809,6.809,0,0,0-1.272,2.586.435.435,0,0,0,.075.375.466.466,0,0,0,.337.186l.3.018a.7.7,0,0,1-.09,1.4l-.3-.018a.464.464,0,0,0-.358.14.456.456,0,0,0-.122.364,6.8,6.8,0,0,0,.935,2.725.455.455,0,0,0,.319.214.443.443,0,0,0,.369-.107l.226-.2a.7.7,0,0,1,.509-.175.689.689,0,0,1,.483.236.677.677,0,0,1,.172.507.691.691,0,0,1-.236.482l-.226.2a.454.454,0,0,0,.018.7,6.9,6.9,0,0,0,2.594,1.268.444.444,0,0,0,.377-.075.456.456,0,0,0,.186-.336l.018-.3a.7.7,0,0,1,1.4.085l-.018.3a.448.448,0,0,0,.139.358.43.43,0,0,0,.283.121.8.8,0,0,0,.083,0,6.849,6.849,0,0,0,2.734-.933.454.454,0,0,0,.215-.318.446.446,0,0,0-.108-.368l-.2-.225a.7.7,0,0,1-.175-.507.683.683,0,0,1,.236-.482.7.7,0,0,1,.993.061l.2.225a.458.458,0,0,0,.7-.018,6.794,6.794,0,0,0,1.272-2.586.437.437,0,0,0-.076-.375.467.467,0,0,0-.336-.186l-.3-.018a.7.7,0,1,1,.089-1.4Z" stroke="none"/>
      <path d="M 726.9669799804688 361.1546936035156 C 726.5592651367188 361.2457885742188 726.1644287109375 361.3803405761719 725.7852172851562 361.5573425292969 C 725.9363403320312 361.8347778320312 726.0069580078125 362.1487731933594 725.9871215820312 362.4702758789062 C 725.9591674804688 362.92578125 725.7551879882812 363.3415832519531 725.4126586914062 363.6416931152344 C 725.1012573242188 363.9161987304688 724.7017211914062 364.0673522949219 724.287353515625 364.0673522949219 C 724.2540893554688 364.0673522949219 724.2208862304688 364.0663757324219 724.187744140625 364.0644226074219 C 723.8609008789062 364.0462341308594 723.5535278320312 363.9368591308594 723.2930297851562 363.7488403320312 C 723.0723876953125 364.0972900390625 722.890380859375 364.4673461914062 722.7484130859375 364.8562622070312 C 723.0527954101562 364.9458618164062 723.3263549804688 365.1192626953125 723.541015625 365.3627014160156 C 723.8418579101562 365.703857421875 723.9913330078125 366.1417541503906 723.9619140625 366.5955505371094 C 723.91015625 367.3957824707031 723.30517578125 368.0407409667969 722.535400390625 368.1668090820312 C 722.6271362304688 368.5715942382812 722.7620239257812 368.9638061523438 722.939208984375 369.3407897949219 C 723.1875 369.2057800292969 723.4667358398438 369.1336669921875 723.7525634765625 369.1336669921875 C 723.7875366210938 369.1336669921875 723.822509765625 369.134765625 723.8562622070312 369.1368103027344 C 724.3126220703125 369.1643676757812 724.729736328125 369.3684387207031 725.0283203125 369.7088012695312 C 725.3341064453125 370.0548095703125 725.4830322265625 370.4945068359375 725.4485473632812 370.9482727050781 C 725.4279174804688 371.2689208984375 725.319091796875 371.5701599121094 725.13525390625 371.8251953125 C 725.489013671875 372.0473022460938 725.8621826171875 372.2296447753906 726.2521362304688 372.3710632324219 C 726.4725952148438 371.6369323730469 727.1758422851562 371.1132507324219 727.9810791015625 371.157470703125 L 727.9940795898438 371.1582641601562 C 728.7943115234375 371.2120361328125 729.4353637695312 371.8182067871094 729.5643310546875 372.5787658691406 C 729.9718627929688 372.4873352050781 730.3667602539062 372.3526611328125 730.74609375 372.1757202148438 C 730.59619140625 371.8999938964844 730.5257568359375 371.5877075195312 730.5446166992188 371.2673645019531 C 730.570068359375 370.8113098144531 730.774169921875 370.3934020996094 731.1195068359375 370.0903015136719 C 731.431640625 369.8164672851562 731.8312377929688 369.6656494140625 732.2446899414062 369.6656494140625 C 732.2796630859375 369.6656494140625 732.3146362304688 369.6667175292969 732.3494873046875 369.6688842773438 C 732.6767578125 369.6890258789062 732.9835815429688 369.7994995117188 733.2420043945312 369.9866943359375 C 733.463134765625 369.6380615234375 733.6455688476562 369.2672424316406 733.787841796875 368.8768310546875 C 733.4835815429688 368.787353515625 733.2100219726562 368.6141967773438 732.9951782226562 368.37109375 C 732.693603515625 368.0298156738281 732.543701171875 367.5917053222656 732.5730590820312 367.1371459960938 C 732.6250610351562 366.3374328613281 733.230224609375 365.6928405761719 734.0001831054688 365.5664367675781 C 733.90869140625 365.1614685058594 733.7737426757812 364.7690734863281 733.5962524414062 364.3919982910156 C 733.3471069335938 364.5276794433594 733.0665893554688 364.6001281738281 732.7792358398438 364.6001281738281 C 732.7471923828125 364.6001281738281 732.7152099609375 364.5992431640625 732.6787719726562 364.59716796875 C 732.2246704101562 364.5697631835938 731.8084106445312 364.3666381835938 731.5042724609375 364.0224914550781 C 731.2039794921875 363.6802062988281 731.0540161132812 363.2439575195312 731.081787109375 362.7960510253906 C 731.101318359375 362.4711608886719 731.2107543945312 362.1659240722656 731.3965454101562 361.9081115722656 C 731.046142578125 361.68896484375 730.670654296875 361.5057678222656 730.280517578125 361.3635864257812 C 730.0603637695312 362.0998229980469 729.3536987304688 362.6243591308594 728.5471801757812 362.578369140625 L 728.53955078125 362.5779113769531 C 727.7369995117188 362.5260620117188 727.0944213867188 361.9183044433594 726.9669799804688 361.1546936035156 M 727.5078735351562 360.0563659667969 C 727.623779296875 360.0563659667969 727.7390747070312 360.0986938476562 727.822998046875 360.1799926757812 C 727.9199829101562 360.2730102539062 727.969970703125 360.4049987792969 727.9630126953125 360.5379943847656 L 727.9450073242188 360.8380126953125 C 727.9240112304688 361.2229919433594 728.2169799804688 361.5549926757812 728.60400390625 361.5799865722656 C 728.9913940429688 361.6029052734375 729.3250732421875 361.3089599609375 729.3499755859375 360.9230041503906 L 729.3679809570312 360.6229858398438 C 729.3779907226562 360.4909973144531 729.4459838867188 360.3659973144531 729.5540161132812 360.2869873046875 C 729.6610717773438 360.2050170898438 729.7979736328125 360.179931640625 729.9299926757812 360.2120056152344 C 730.8939819335938 360.4519958496094 731.7760009765625 360.8909912109375 732.5239868164062 361.4800109863281 C 732.6279907226562 361.56298828125 732.6929931640625 361.68798828125 732.6959838867188 361.822998046875 C 732.7000122070312 361.9549865722656 732.6430053710938 362.0840148925781 732.5419921875 362.1730041503906 L 732.3170166015625 362.3729858398438 C 732.1699829101562 362.5020141601562 732.0910034179688 362.6730041503906 732.0800170898438 362.8559875488281 C 732.0689697265625 363.0339965820312 732.1270141601562 363.2160034179688 732.2559814453125 363.3630065917969 C 732.385009765625 363.5090026855469 732.5570068359375 363.5880126953125 732.739013671875 363.5989990234375 C 732.9193115234375 363.6093444824219 733.1010131835938 363.552001953125 733.2479858398438 363.4230041503906 L 733.4739990234375 363.2269897460938 C 733.573974609375 363.1380004882812 733.710693359375 363.0980834960938 733.843017578125 363.1199951171875 C 733.9760131835938 363.1409912109375 734.093994140625 363.2200012207031 734.1619873046875 363.3340148925781 C 734.656982421875 364.1520080566406 734.9829711914062 365.0769958496094 735.0969848632812 366.0589904785156 C 735.1119995117188 366.1919860839844 735.0689697265625 366.3269958496094 734.9749755859375 366.4240112304688 C 734.882080078125 366.5199584960938 734.7506713867188 366.5701293945312 734.6170043945312 366.56298828125 L 734.3159790039062 366.5450134277344 C 733.9293823242188 366.5237426757812 733.595947265625 366.8169860839844 733.5709838867188 367.2019958496094 C 733.5460205078125 367.5880126953125 733.8400268554688 367.9200134277344 734.2269897460938 367.9450073242188 L 734.5280151367188 367.9630126953125 C 734.6599731445312 367.9739990234375 734.7860107421875 368.0419921875 734.864013671875 368.1489868164062 C 734.947021484375 368.2560119628906 734.9719848632812 368.3919982910156 734.9400024414062 368.5239868164062 C 734.7000122070312 369.4849853515625 734.2620239257812 370.3630065917969 733.6680297851562 371.1099853515625 C 733.5850219726562 371.2139892578125 733.4600219726562 371.2780151367188 733.323974609375 371.281005859375 C 733.185791015625 371.2848815917969 733.0579833984375 371.2279663085938 732.968994140625 371.1279907226562 L 732.77197265625 370.9030151367188 C 732.6430053710938 370.7560119628906 732.4669799804688 370.6780090332031 732.2880249023438 370.6669921875 C 732.1094970703125 370.6560974121094 731.9260864257812 370.7130126953125 731.7789916992188 370.8420104980469 C 731.6320190429688 370.9710083007812 731.552978515625 371.1419982910156 731.5430297851562 371.3240051269531 C 731.531982421875 371.5029907226562 731.5889892578125 371.6849975585938 731.718017578125 371.8309936523438 L 731.9149780273438 372.0559997558594 C 732.0050048828125 372.156005859375 732.0440063476562 372.2919921875 732.0230102539062 372.4240112304688 C 732.0009765625 372.5570068359375 731.9229736328125 372.6740112304688 731.8079833984375 372.7420043945312 C 730.9869995117188 373.2349853515625 730.0590209960938 373.5599975585938 729.073974609375 373.6749877929688 C 729.0449829101562 373.6780090332031 729.0159912109375 373.6780090332031 728.9910278320312 373.6780090332031 C 728.8870239257812 373.6749877929688 728.7869873046875 373.6319885253906 728.7080078125 373.5570068359375 C 728.6119995117188 373.4639892578125 728.5579833984375 373.3349914550781 728.5689697265625 373.1990051269531 L 728.5869750976562 372.8989868164062 C 728.6079711914062 372.5140075683594 728.3140258789062 372.1820068359375 727.927001953125 372.156005859375 C 727.5376586914062 372.1347045898438 727.2069702148438 372.4280395507812 727.1820068359375 372.8139953613281 L 727.1640014648438 373.1099853515625 C 727.1530151367188 373.2420043945312 727.0889892578125 373.3670043945312 726.97802734375 373.4460144042969 C 726.8699951171875 373.5280151367188 726.7340698242188 373.5529479980469 726.6010131835938 373.52099609375 C 725.6370239257812 373.2820129394531 724.760009765625 372.8420104980469 724.0070190429688 372.2529907226562 C 723.9030151367188 372.1709899902344 723.8389892578125 372.0419921875 723.8350219726562 371.9100036621094 C 723.8319702148438 371.7739868164062 723.8889770507812 371.64599609375 723.989013671875 371.5559997558594 L 724.2150268554688 371.3599853515625 C 724.3619995117188 371.2309875488281 724.4409790039062 371.0559997558594 724.4509887695312 370.8779907226562 C 724.4660034179688 370.6990051269531 724.4080200195312 370.5169982910156 724.2789916992188 370.3710021972656 C 724.1500244140625 370.2239990234375 723.97802734375 370.14599609375 723.7960205078125 370.135009765625 C 723.6170043945312 370.1240539550781 723.4340209960938 370.1809997558594 723.2869873046875 370.3099975585938 L 723.0609741210938 370.5060119628906 C 722.9609375 370.5959777832031 722.8250122070312 370.6349182128906 722.6920166015625 370.6130065917969 C 722.5590209960938 370.5920104980469 722.4409790039062 370.5130004882812 722.3729858398438 370.3989868164062 C 721.8790283203125 369.5809936523438 721.552978515625 368.656005859375 721.43798828125 367.6740112304688 C 721.4240112304688 367.5419921875 721.4669799804688 367.406005859375 721.5599975585938 367.3099975585938 C 721.653076171875 367.2129821777344 721.7860717773438 367.1629333496094 721.9180297851562 367.1700134277344 L 722.218994140625 367.18798828125 C 722.6054077148438 367.21044921875 722.93896484375 366.9169921875 722.9639892578125 366.531005859375 C 722.989013671875 366.1449890136719 722.6959838867188 365.81298828125 722.3090209960938 365.7879943847656 L 722.0079956054688 365.7699890136719 C 721.875 365.7590026855469 721.75 365.6919860839844 721.6710205078125 365.5840148925781 C 721.5880126953125 365.4769897460938 721.56298828125 365.3380126953125 721.5960083007812 365.2090148925781 C 721.8359985351562 364.2489929199219 722.2730102539062 363.3729858398438 722.8679809570312 362.6229858398438 C 722.9500122070312 362.5199890136719 723.0750122070312 362.4559936523438 723.2119750976562 362.4519958496094 C 723.3441772460938 362.4481506347656 723.4730224609375 362.5059814453125 723.56298828125 362.6059875488281 L 723.760009765625 362.8309936523438 C 723.8889770507812 362.9769897460938 724.0609741210938 363.0559997558594 724.2440185546875 363.0660095214844 C 724.4224243164062 363.076904296875 724.60595703125 363.0199584960938 724.7520141601562 362.8909912109375 C 724.8989868164062 362.7630004882812 724.97802734375 362.5880126953125 724.989013671875 362.4089965820312 C 725 362.2309875488281 724.9420166015625 362.0480041503906 724.81298828125 361.9020080566406 L 724.6160278320312 361.677001953125 C 724.5269775390625 361.5769958496094 724.4869995117188 361.4410095214844 724.5089721679688 361.3089904785156 C 724.530029296875 361.177001953125 724.6090087890625 361.0589904785156 724.7239990234375 360.9909973144531 C 725.5440063476562 360.4979858398438 726.4719848632812 360.1730041503906 727.4580078125 360.0589904785156 C 727.474609375 360.0572204589844 727.4912109375 360.0563659667969 727.5078735351562 360.0563659667969 Z" stroke="none" fill="#fb931a"/>
    </g>
    <g id="Path_1560" data-name="Path 1560" fill="none" stroke-miterlimit="10">
      <path d="M709.144,366.743a6.02,6.02,0,1,0,7.332,4.364A6.014,6.014,0,0,0,709.144,366.743Z" stroke="none"/>
      <path d="M 710.62744140625 366.5580139160156 L 710.62744140625 367.5580139160156 C 710.21240234375 367.5580139160156 709.7955322265625 367.6100463867188 709.3880004882812 367.7127685546875 C 708.0785522460938 368.0422668457031 706.9778442382812 368.859619140625 706.2886962890625 370.0142211914062 C 705.6034545898438 371.1622314453125 705.4069213867188 372.5086669921875 705.7353515625 373.805419921875 C 706.3012084960938 376.0388488769531 708.3081665039062 377.5986938476562 710.615966796875 377.5986938476562 C 711.030517578125 377.5986938476562 711.447021484375 377.5469970703125 711.852783203125 377.4452819824219 C 713.1575927734375 377.1166687011719 714.2559814453125 376.302001953125 714.9456176757812 375.1513977050781 C 715.6349487304688 374.0013732910156 715.8340454101562 372.6518249511719 715.5066528320312 371.3525695800781 C 714.940673828125 369.1184692382812 712.9342651367188 367.55810546875 710.6275024414062 367.5580139160156 L 710.62744140625 366.5580139160156 M 710.6275634765625 366.5580139160156 C 713.32666015625 366.55810546875 715.7844848632812 368.3772277832031 716.4760131835938 371.1069946289062 C 717.2890014648438 374.3330078125 715.3289794921875 377.6010131835938 712.0969848632812 378.4150085449219 C 708.8609619140625 379.2260131835938 705.5829467773438 377.2759704589844 704.7659912109375 374.0509948730469 C 703.948974609375 370.8250122070312 705.9089965820312 367.5570068359375 709.1439819335938 366.7430114746094 C 709.6404418945312 366.6178588867188 710.1378784179688 366.5579833984375 710.6275634765625 366.5580139160156 Z" stroke="none" fill="#fb931a"/>
    </g>
    <g id="Path_1561" data-name="Path 1561" fill="none" stroke-miterlimit="10">
      <path d="M721.8,371.261a.77.77,0,0,0-.634-.121l-.487.121a1.174,1.174,0,1,1-.577-2.275l.5-.111a.759.759,0,0,0,.505-1.05,11.4,11.4,0,0,0-2.888-3.868.761.761,0,0,0-1.154.182l-.258.429a1.18,1.18,0,0,1-1.616.4,1.177,1.177,0,0,1-.408-1.611l.258-.432a.76.76,0,0,0-.387-1.1,11.45,11.45,0,0,0-4.784-.7.759.759,0,0,0-.566.311.768.768,0,0,0-.122.632l.122.486a1.177,1.177,0,0,1-2.282.575l-.122-.486a.761.761,0,0,0-.409-.5.769.769,0,0,0-.645-.007,11.444,11.444,0,0,0-3.88,2.876.751.751,0,0,0-.18.617.764.764,0,0,0,.362.533l.43.257a1.175,1.175,0,0,1-1.211,2.014l-.433-.257a.766.766,0,0,0-.642-.064.757.757,0,0,0-.462.45,11.348,11.348,0,0,0-.7,4.768.755.755,0,0,0,.311.561.771.771,0,0,0,.635.121l.487-.121a1.174,1.174,0,1,1,.577,2.275l-.487.122a.76.76,0,0,0-.506,1.05,11.372,11.372,0,0,0,2.885,3.861.762.762,0,0,0,1.154-.182l.258-.429a1.177,1.177,0,1,1,2.021,1.207l-.258.429a.758.758,0,0,0,.387,1.1,11.443,11.443,0,0,0,4.783.7.759.759,0,0,0,.688-.943l-.122-.486a1.177,1.177,0,0,1,2.283-.571l.122.486a.755.755,0,0,0,.408.5.813.813,0,0,0,.52.061c.043-.014.086-.029.129-.047a11.449,11.449,0,0,0,3.88-2.878.768.768,0,0,0,.18-.618A.76.76,0,0,0,719.1,379l-.43-.258a1.177,1.177,0,0,1,1.211-2.018l.43.257a.758.758,0,0,0,1.1-.385,11.365,11.365,0,0,0,.7-4.769.767.767,0,0,0-.312-.564Z" stroke="none"/>
      <path d="M 710.6387329101562 362.1022033691406 C 710.50048828125 362.1022033691406 710.361083984375 362.10498046875 710.220947265625 362.1105651855469 L 710.2717895507812 362.31298828125 C 710.5632934570312 363.4715576171875 709.8565063476562 364.6549682617188 708.6961669921875 364.9509582519531 L 708.6908569335938 364.9523010253906 C 708.5173950195312 364.9955444335938 708.3392944335938 365.0174560546875 708.1614990234375 365.0174560546875 C 707.1661987304688 365.0174560546875 706.2984619140625 364.34423828125 706.0501098632812 363.37548828125 L 705.9994506835938 363.1737060546875 C 704.8292236328125 363.7423706054688 703.7932739257812 364.5093688964844 702.9114379882812 365.4604797363281 L 703.0904541015625 365.5674743652344 C 703.5869750976562 365.8653564453125 703.9393920898438 366.3378601074219 704.082763671875 366.8979797363281 L 704.0851440429688 366.907470703125 C 704.2235107421875 367.4707641601562 704.135986328125 368.0541076660156 703.8368530273438 368.5533142089844 C 703.538818359375 369.0463562011719 703.0655517578125 369.3967590332031 702.5042114257812 369.5399780273438 L 702.4926147460938 369.5428466796875 C 702.3193969726562 369.5848693847656 702.142333984375 369.6061706542969 701.9664916992188 369.6061706542969 C 701.5740966796875 369.6061706542969 701.188232421875 369.4990844726562 700.8546142578125 369.2989196777344 L 700.6671752929688 369.1876831054688 C 700.2445068359375 370.4073791503906 700.0568237304688 371.6791076660156 700.1082763671875 372.9785766601562 L 700.3175048828125 372.9266052246094 C 700.4910278320312 372.8834228515625 700.669189453125 372.8615112304688 700.84716796875 372.8614807128906 C 701.841552734375 372.8614196777344 702.7093505859375 373.5342102050781 702.9573974609375 374.4976196289062 L 702.959228515625 374.5048522949219 C 703.2487182617188 375.6646423339844 702.5410766601562 376.8473815917969 701.3790283203125 377.1420288085938 L 701.177734375 377.1924438476562 C 701.7435302734375 378.3431701660156 702.52978515625 379.394775390625 703.4729614257812 380.2616271972656 L 703.5841064453125 380.0768127441406 C 703.88232421875 379.5833129882812 704.3550415039062 379.2325744628906 704.9151000976562 379.0892333984375 L 704.92822265625 379.0859680175781 C 705.0996704101562 379.0445251464844 705.2752685546875 379.0235290527344 705.4500122070312 379.0235290527344 C 705.8414306640625 379.0235290527344 706.2274780273438 379.1298828125 706.569580078125 379.3329772949219 C 707.065673828125 379.6299133300781 707.4180297851562 380.1026000976562 707.561767578125 380.6639709472656 L 707.5641479492188 380.6734924316406 C 707.7020874023438 381.2350463867188 707.6154174804688 381.8172607421875 707.3179931640625 382.3163757324219 L 707.2128295898438 382.4912109375 C 708.3032836914062 382.8659973144531 709.4420166015625 383.0557861328125 710.6022338867188 383.0557861328125 C 710.7404174804688 383.0557861328125 710.8798217773438 383.0530090332031 711.02001953125 383.0474243164062 L 710.9688720703125 382.8435974121094 C 710.6793823242188 381.6858825683594 711.3861083984375 380.5031433105469 712.5443725585938 380.2071533203125 L 712.556396484375 380.2041625976562 C 712.7262573242188 380.1629638671875 712.900634765625 380.1420593261719 713.07470703125 380.1420593261719 C 714.0734252929688 380.1419982910156 714.943603515625 380.8163757324219 715.19189453125 381.7864990234375 L 715.2442626953125 381.9950561523438 C 716.4122924804688 381.4280395507812 717.4495239257812 380.6593017578125 718.3339233398438 379.7051391601562 L 718.154541015625 379.5975036621094 C 717.6580200195312 379.2996215820312 717.3056030273438 378.8271179199219 717.1622314453125 378.2670288085938 L 717.1583862304688 378.2514343261719 C 717.022705078125 377.6838684082031 717.1116333007812 377.1012268066406 717.4081420898438 376.6116943359375 C 717.7061767578125 376.1186828613281 718.179443359375 375.7682495117188 718.7400512695312 375.6252136230469 C 718.918212890625 375.5796203613281 719.1008911132812 375.5565185546875 719.2831420898438 375.5565185546875 C 719.6707763671875 375.5565185546875 720.0536499023438 375.6621704101562 720.39306640625 375.8636169433594 L 720.5719604492188 375.9705505371094 C 720.9942626953125 374.7483520507812 721.1815185546875 373.4755554199219 721.129638671875 372.179443359375 L 720.9205322265625 372.2313842773438 C 720.7468872070312 372.2745971679688 720.5686645507812 372.2965087890625 720.3906860351562 372.2965087890625 C 719.3948364257812 372.2965087890625 718.5269775390625 371.6231079101562 718.2802124023438 370.6589050292969 L 718.27880859375 370.6532287597656 C 717.9896850585938 369.4951477050781 718.6966552734375 368.3125610351562 719.854736328125 368.0170288085938 L 719.8844604492188 368.0099487304688 L 720.0671997070312 367.9692077636719 C 719.49951171875 366.8110656738281 718.7289428710938 365.7808837890625 717.7718505859375 364.900634765625 L 717.660888671875 365.0850830078125 C 717.3631591796875 365.5779113769531 716.8904418945312 365.9283447265625 716.329833984375 366.07177734375 L 716.3168334960938 366.0750427246094 C 715.7559814453125 366.2105102539062 715.1613159179688 366.1206665039062 714.6785888671875 365.8309326171875 C 714.18115234375 365.53564453125 713.8276977539062 365.0622863769531 713.682373046875 364.4946899414062 C 713.5390014648438 363.9264831542969 713.6246337890625 363.3409423828125 713.923583984375 362.8453979492188 L 714.030029296875 362.6671142578125 C 712.9385375976562 362.2921752929688 711.799072265625 362.1022033691406 710.6387329101562 362.1022033691406 M 710.6387329101562 361.1022033691406 C 712.0294799804688 361.1022033691406 713.3868408203125 361.3542175292969 714.6519775390625 361.8280029296875 C 714.8629760742188 361.9070129394531 715.0280151367188 362.0740051269531 715.10302734375 362.2890014648438 C 715.1790161132812 362.5029907226562 715.1539916992188 362.7349853515625 715.0390014648438 362.9280090332031 L 714.781005859375 363.3599853515625 C 714.6119995117188 363.6390075683594 714.5770263671875 363.9530029296875 714.6519775390625 364.25 C 714.7269897460938 364.5429992675781 714.906005859375 364.8030090332031 715.1890258789062 364.9710083007812 C 715.468994140625 365.1390075683594 715.7840576171875 365.1749267578125 716.0819702148438 365.1029968261719 C 716.375 365.0280151367188 716.6370239257812 364.8460083007812 716.8049926757812 364.5679931640625 L 717.06298828125 364.1390075683594 C 717.177978515625 363.9460144042969 717.375 363.8139953613281 717.5969848632812 363.7780151367188 C 717.8192138671875 363.7420043945312 718.0450439453125 363.8070068359375 718.2169799804688 363.9570007324219 C 719.4210205078125 365.0069885253906 720.4169921875 366.3139953613281 721.10498046875 367.8250122070312 C 721.197998046875 368.0289916992188 721.1950073242188 368.2640075683594 721.0980224609375 368.4679870605469 C 721.0009765625 368.6719970703125 720.8189697265625 368.8179931640625 720.5999755859375 368.875 L 720.1019897460938 368.9859924316406 C 719.4710083007812 369.1470031738281 719.0919799804688 369.7820129394531 719.2490234375 370.4110107421875 C 719.4099731445312 371.0400390625 720.0477905273438 371.41796875 720.6790161132812 371.260986328125 L 721.166015625 371.1400146484375 C 721.3850708007812 371.0860595703125 721.6139526367188 371.1289978027344 721.7999877929688 371.260986328125 C 721.9829711914062 371.3930053710938 722.093994140625 371.6000061035156 722.1119995117188 371.8250122070312 C 722.2230224609375 373.47900390625 721.9719848632812 375.1010131835938 721.4099731445312 376.593994140625 C 721.3309936523438 376.8039855957031 721.1630249023438 376.968994140625 720.9509887695312 377.0440063476562 C 720.7399291992188 377.1189575195312 720.5029907226562 377.0939636230469 720.3099975585938 376.97900390625 L 719.8800048828125 376.7219848632812 C 719.5969848632812 376.5539855957031 719.281005859375 376.5189514160156 718.9879760742188 376.593994140625 C 718.6939697265625 376.6690063476562 718.4320068359375 376.8510131835938 718.2639770507812 377.1289978027344 C 718.094970703125 377.4079895019531 718.0599975585938 377.7219848632812 718.1309814453125 378.0190124511719 C 718.2059936523438 378.31201171875 718.3889770507812 378.5719909667969 718.6690063476562 378.739990234375 L 719.0989990234375 378.9979858398438 C 719.2919921875 379.1119995117188 719.4249877929688 379.3080139160156 719.4609985351562 379.5299987792969 C 719.4959716796875 379.7510070800781 719.427978515625 379.9760131835938 719.281005859375 380.1480102539062 C 718.22802734375 381.3479919433594 716.9130249023438 382.3410034179688 715.4010009765625 383.0260009765625 C 715.3579711914062 383.0440063476562 715.3150024414062 383.0589904785156 715.27197265625 383.072998046875 C 715.0960693359375 383.1090087890625 714.9169921875 383.0910034179688 714.7520141601562 383.0119934082031 C 714.5479736328125 382.9159851074219 714.4010009765625 382.7340087890625 714.343994140625 382.5159912109375 L 714.2219848632812 382.0299987792969 C 714.06103515625 381.4010009765625 713.4226684570312 381.0229797363281 712.7919921875 381.1759948730469 C 712.1619873046875 381.3370056152344 711.781982421875 381.9729919433594 711.9390258789062 382.6010131835938 L 712.0609741210938 383.0870056152344 C 712.114990234375 383.3049926757812 712.072021484375 383.5369873046875 711.9390258789062 383.718994140625 C 711.8070068359375 383.9020080566406 711.5989990234375 384.0159912109375 711.3729858398438 384.0299987792969 C 709.71435546875 384.1410522460938 708.0869750976562 383.8909912109375 706.5900268554688 383.3299865722656 C 706.3779907226562 383.2520141601562 706.2130126953125 383.0840148925781 706.1380004882812 382.8689880371094 C 706.06298828125 382.6589965820312 706.0880126953125 382.4230041503906 706.2030029296875 382.2300109863281 L 706.4609985351562 381.8009948730469 C 706.6290283203125 381.5190124511719 706.6649780273438 381.2049865722656 706.593017578125 380.9119873046875 C 706.5180053710938 380.6189880371094 706.3350219726562 380.3580017089844 706.0560302734375 380.1910095214844 C 705.7731323242188 380.0230712890625 705.4570922851562 379.9869995117188 705.1630249023438 380.0580139160156 C 704.8699951171875 380.1329956054688 704.6079711914062 380.3160095214844 704.4400024414062 380.593994140625 L 704.1820068359375 381.0230102539062 C 704.0670166015625 381.2160034179688 703.8699951171875 381.3479919433594 703.6480102539062 381.3829956054688 C 703.4262084960938 381.4189147949219 703.2000122070312 381.3550109863281 703.0280151367188 381.2049865722656 C 701.8270263671875 380.1619873046875 700.8309936523438 378.8510131835938 700.1430053710938 377.343994140625 C 700.0499877929688 377.1400146484375 700.0540161132812 376.9039916992188 700.1510009765625 376.7009887695312 C 700.2470092773438 376.4970092773438 700.4299926757812 376.3510131835938 700.6489868164062 376.2940063476562 L 701.135986328125 376.1719970703125 C 701.7670288085938 376.0119934082031 702.14599609375 375.3760070800781 701.989013671875 374.7470092773438 C 701.8270874023438 374.1180114746094 701.1901245117188 373.7399291992188 700.5590209960938 373.8970031738281 L 700.072021484375 374.0180053710938 C 699.85302734375 374.0719909667969 699.6199951171875 374.0289611816406 699.43701171875 373.8970031738281 C 699.2550048828125 373.7650146484375 699.1400146484375 373.5580139160156 699.1259765625 373.3359985351562 C 699.0150146484375 371.6830139160156 699.2650146484375 370.0610046386719 699.8280029296875 368.5679931640625 C 699.906982421875 368.3569946289062 700.0750122070312 368.1929931640625 700.2899780273438 368.1180114746094 C 700.5018920898438 368.0429992675781 700.7379150390625 368.0679321289062 700.9320068359375 368.1820068359375 L 701.364990234375 368.4389953613281 C 701.6450805664062 368.6070251464844 701.9600830078125 368.6430053710938 702.2570190429688 368.5710144042969 C 702.551025390625 368.4960021972656 702.81298828125 368.3139953613281 702.9810180664062 368.0360107421875 C 703.1500244140625 367.7539978027344 703.1859741210938 367.4389953613281 703.114013671875 367.14599609375 C 703.0390014648438 366.8529968261719 702.8560180664062 366.5929870605469 702.5759887695312 366.4249877929688 L 702.14599609375 366.1679992675781 C 701.9530029296875 366.0530090332031 701.8200073242188 365.8569946289062 701.7839965820312 365.635009765625 C 701.7490234375 365.4140014648438 701.81298828125 365.1889953613281 701.9639892578125 365.0180053710938 C 703.0170288085938 363.8169860839844 704.3319702148438 362.8280029296875 705.843994140625 362.1419982910156 C 706.0490112304688 362.049072265625 706.2849731445312 362.0530090332031 706.489013671875 362.1489868164062 C 706.6939697265625 362.2460021972656 706.8400268554688 362.4280090332031 706.8980102539062 362.64599609375 L 707.02001953125 363.1319885253906 C 707.1810302734375 363.760009765625 707.8192138671875 364.1389770507812 708.448974609375 363.9819946289062 C 709.0800170898438 363.8210144042969 709.4600219726562 363.1849975585938 709.302001953125 362.5570068359375 L 709.1799926757812 362.0710144042969 C 709.1270141601562 361.8529968261719 709.1699829101562 361.6210021972656 709.302001953125 361.4389953613281 C 709.4349975585938 361.2560119628906 709.6430053710938 361.1419982910156 709.8679809570312 361.1279907226562 C 710.1258544921875 361.1107482910156 710.3827514648438 361.1022033691406 710.6387329101562 361.1022033691406 Z" stroke="none" fill="#fb931a"/>
    </g>
    <g id="Path_1562" data-name="Path 1562" fill="none" stroke-miterlimit="10">
      <path d="M728.45,363.927a2.945,2.945,0,1,0,2.763,3.125A2.952,2.952,0,0,0,728.45,363.927Z" stroke="none"/>
      <path d="M 728.2648315429688 364.9213256835938 C 727.2333374023438 364.9213256835938 726.3760375976562 365.7212829589844 726.31298828125 366.744873046875 C 726.2798461914062 367.2624816894531 726.451416015625 367.7620239257812 726.796142578125 368.1514282226562 C 727.1417236328125 368.5417785644531 727.619384765625 368.7749633789062 728.1392211914062 368.807861328125 C 728.1803588867188 368.8103942871094 728.2220458984375 368.8116760253906 728.2630004882812 368.8116760253906 C 729.2920532226562 368.8116760253906 730.1494750976562 368.0106201171875 730.2150268554688 366.9881286621094 C 730.2481689453125 366.4706420898438 730.0765991210938 365.9712829589844 729.73193359375 365.58203125 C 729.3863525390625 365.1917114257812 728.9083862304688 364.9583435058594 728.3887939453125 364.9251403808594 C 728.3475952148438 364.922607421875 728.3059692382812 364.9213256835938 728.2649536132812 364.9213256835938 L 728.2648315429688 364.9213256835938 M 728.2649536132812 363.9213256835938 C 728.3262329101562 363.9213256835938 728.3880004882812 363.9232177734375 728.4500122070312 363.927001953125 C 730.0770263671875 364.031005859375 731.3170166015625 365.427001953125 731.2130126953125 367.052001953125 C 731.1090698242188 368.6739501953125 729.7088012695312 369.9057922363281 728.0780029296875 369.8059997558594 C 726.4509887695312 369.7030029296875 725.2109985351562 368.3059997558594 725.3150024414062 366.6809997558594 C 725.4111938476562 365.1206665039062 726.7149047851562 363.9212646484375 728.2649536132812 363.9213256835938 Z" stroke="none" fill="#fb931a"/>
    </g>
  </g>
</svg>
