<svg xmlns="http://www.w3.org/2000/svg" width="16" height="17.951" viewBox="0 0 16 17.951">
  <g id="profile" transform="translate(-754.878 -289.187)">
    <g id="Path_1504" data-name="Path 1504" fill="none" stroke-miterlimit="10">
      <path d="M761.047,299.176a6.049,6.049,0,0,0-6.169,5.908v.351c0,1.7,2.723,1.7,6.169,1.7h3.661c3.311,0,6.17,0,6.17-1.7v-.351a6.051,6.051,0,0,0-6.17-5.908h-3.661Z" stroke="none"/>
      <path d="M 761.0469970703125 300.1759948730469 C 758.19677734375 300.1759948730469 755.8779907226562 302.3777160644531 755.8779907226562 305.0840148925781 L 755.8779907226562 305.4349975585938 C 755.8779907226562 305.5426330566406 755.8975219726562 305.5730895996094 755.9697265625 305.6290283203125 C 756.0618286132812 305.7003479003906 756.2996826171875 305.8359680175781 756.8583374023438 305.9429931640625 C 757.8766479492188 306.1380004882812 759.4166259765625 306.1380004882812 761.0469970703125 306.1380004882812 L 764.7080078125 306.1380004882812 C 766.3045043945312 306.1380004882812 767.8125 306.1380004882812 768.8492431640625 305.9424438476562 C 769.400634765625 305.8384399414062 769.6597900390625 305.709228515625 769.7800903320312 305.619140625 C 769.8704223632812 305.551513671875 769.8779907226562 305.5187377929688 769.8779907226562 305.4349975585938 L 769.8779907226562 305.0840148925781 C 769.8779907226562 302.3777160644531 767.5587768554688 300.1759948730469 764.7080078125 300.1759948730469 L 761.0469970703125 300.1759948730469 M 761.0460205078125 299.1759948730469 L 764.7080078125 299.1759948730469 C 768.1099853515625 299.1759948730469 770.8779907226562 301.8269958496094 770.8779907226562 305.0840148925781 L 770.8779907226562 305.4349975585938 C 770.8779907226562 307.1380004882812 768.0189819335938 307.1380004882812 764.7080078125 307.1380004882812 L 761.0469970703125 307.1380004882812 C 757.6010131835938 307.1380004882812 754.8779907226562 307.1380004882812 754.8779907226562 305.4349975585938 L 754.8779907226562 305.0840148925781 C 754.8779907226562 301.8250122070312 757.64501953125 299.1759948730469 761.0469970703125 299.1759948730469 L 761.0460205078125 299.1759948730469 Z" stroke="none" fill="#5e5f5f"/>
    </g>
    <g id="Path_1505" data-name="Path 1505" fill="none" stroke-miterlimit="10">
      <path d="M762.7,298.187a4.5,4.5,0,1,0-4.5-4.5,4.5,4.5,0,0,0,4.5,4.5Z" stroke="none"/>
      <path d="M 762.6986083984375 297.18701171875 L 762.6983642578125 297.18701171875 C 764.6280517578125 297.1868286132812 766.197998046875 295.6171569824219 766.197998046875 293.68798828125 C 766.197998046875 291.7575378417969 764.6283569335938 290.18701171875 762.698974609375 290.18701171875 C 760.7685546875 290.18701171875 759.197998046875 291.7575378417969 759.197998046875 293.68798828125 C 759.197998046875 295.6171569824219 760.7683715820312 297.1868286132812 762.6986083984375 297.18701171875 M 762.698974609375 298.18701171875 L 762.697998046875 298.18701171875 C 762.6983032226562 298.1869812011719 762.69873046875 298.1869812011719 762.698974609375 298.18701171875 Z M 762.698486328125 298.18701171875 C 760.2166748046875 298.186767578125 758.197998046875 296.1688537597656 758.197998046875 293.68798828125 C 758.197998046875 291.2059936523438 760.2169799804688 289.18701171875 762.698974609375 289.18701171875 C 765.1799926757812 289.18701171875 767.197998046875 291.2059936523438 767.197998046875 293.68798828125 C 767.197998046875 296.1698608398438 765.1802978515625 298.186767578125 762.698486328125 298.18701171875 Z" stroke="none" fill="#5e5f5f"/>
    </g>
  </g>
</svg>
