<svg xmlns="http://www.w3.org/2000/svg" width="45.021" height="34.082" viewBox="0 0 45.021 34.082">
  <g id="qa" transform="translate(0 -62.206)">
    <g id="Group_842" data-name="Group 842" transform="translate(0 62.206)">
      <path id="Path_1563" data-name="Path 1563" d="M10.492,180.014C4.937,180.978,0,186.549,0,191.246a10.78,10.78,0,0,0,4.718,8.663l0,0-1.687,3.928a.933.933,0,0,0,.914,1.337,15.224,15.224,0,0,0,6.84-2.7,16.424,16.424,0,0,0,2.972.27c2.143,0,6.54.121,10.224-2.373Z" transform="translate(0 -171.099)" fill="#fb931a"/>
      <path id="Path_1565" data-name="Path 1565" d="M126.634,88.971l0,0s.791-1.585.791-1.585c2.982-2.716,5.475-5.945,5.475-9.921q0-.4-.024-.785c-.489-8.065-8.473-14.478-18.251-14.478S96.887,68.6,96.38,76.654q-.025.4-.026.815c0,8.43,9.818,14.271,18.274,14.448a19.539,19.539,0,0,0,3.948-.358,20.22,20.22,0,0,0,9.085,3.589c.91.142,1.074-1.286,1.074-1.286Z" transform="translate(-87.881 -62.206)" fill="#1db854"/>
    </g>
    <g id="Group_843" data-name="Group 843" transform="translate(15.461 72.745)">
      <path id="Path_1568" data-name="Path 1568" d="M360.129,191.69l.647-2.321h3.341l.647,2.321a.679.679,0,0,0,1.309-.365l-2.286-8.2a1.391,1.391,0,0,0-2.681,0l-2.286,8.2A.679.679,0,0,0,360.129,191.69Zm2.286-8.2a.082.082,0,0,1,.007-.019.062.062,0,0,1,.048,0,.065.065,0,0,1,.008.019l1.26,4.524h-2.584Z" transform="translate(-342.707 -182.099)" fill="#f2fdff"/>
      <path id="Path_1569" data-name="Path 1569" d="M181.935,185.11a3.053,3.053,0,1,0-6.105,0V189.1a3.05,3.05,0,0,0,4.961,2.38l.476.474a.679.679,0,1,0,.96-.962l-.586-.585a3.034,3.034,0,0,0,.295-1.308Zm-1.894,3.7a.679.679,0,1,0-.96.962l.737.735a1.692,1.692,0,0,1-2.63-1.41V185.11a1.694,1.694,0,1,1,3.387,0V189.1a1.683,1.683,0,0,1-.017.229Z" transform="translate(-175.83 -182.057)" fill="#f2fdff"/>
      <path id="Path_1570" data-name="Path 1570" d="M269.984,190.515a2.064,2.064,0,0,0,1.8,1.634,2.327,2.327,0,0,0,.271.016,3.253,3.253,0,0,0,2.565-1.6l.778,1.257a.679.679,0,0,0,1.156-.715l-1.184-1.914c.34-.714.751-1.529.756-1.538a.679.679,0,1,0-1.213-.612c-.013.025-.18.357-.389.782l-.8-1.3c.124-.142.267-.313.411-.5a3.269,3.269,0,0,0,.862-1.847,2.121,2.121,0,0,0-4.241,0,3.269,3.269,0,0,0,.862,1.847c.109.142.218.274.318.392C271.121,187.257,269.68,189.007,269.984,190.515Zm2.882-7.1a.763.763,0,0,1,.762.762,3.4,3.4,0,0,1-.762,1.249,3.4,3.4,0,0,1-.762-1.249A.763.763,0,0,1,272.866,183.417Zm-.124,4.119,1.076,1.739c-.642,1.2-1.379,1.583-1.879,1.524a.7.7,0,0,1-.622-.553C271.169,189.517,272.012,188.341,272.742,187.536Z" transform="translate(-261.667 -182.058)" fill="#f2fdff"/>
    </g>
  </g>
</svg>
