<svg xmlns="http://www.w3.org/2000/svg" width="10" height="10" viewBox="0 0 10 10">
  <path id="selected_star" d="M161.832,829.967a.91.91,0,0,0-.725-.614l-2.375-.364-1.031-2.206a.9.9,0,0,0-1.641,0l-1.032,2.206-2.375.364a.907.907,0,0,0-.725.614.926.926,0,0,0,.214.941l1.743,1.793-.4,2.485a.933.933,0,0,0,.377.905.909.909,0,0,0,.955.053L156.881,835l2.069,1.148a.9.9,0,0,0,.956-.054.932.932,0,0,0,.375-.9l-.4-2.485,1.743-1.793a.927.927,0,0,0,.213-.942Z" transform="translate(-151.88 -826.258)" fill="#1db854"/>
</svg>
