<svg xmlns="http://www.w3.org/2000/svg" width="12" height="12" viewBox="0 0 12 12">
  <g id="selected_like" transform="translate(-887.507 -317.992)">
    <path id="Path_1550" data-name="Path 1550" d="M897.072,329.992h-6.808V322.9l2.269-4.582a.485.485,0,0,1,.5-.327,2.2,2.2,0,0,1,2.214,2.182v1.636h2.6a1.649,1.649,0,0,1,1.66,1.637v.272l-.775,4.91A1.616,1.616,0,0,1,897.072,329.992Z" fill="#1db854"/>
    <path id="Rectangle_508" data-name="Rectangle 508" d="M1.5,0h.843a0,0,0,0,1,0,0V7.093a0,0,0,0,1,0,0H1.5A1.5,1.5,0,0,1,0,5.593V1.5A1.5,1.5,0,0,1,1.5,0Z" transform="translate(887.507 322.899)" fill="#1db854"/>
  </g>
</svg>
