<svg xmlns="http://www.w3.org/2000/svg" width="12" height="11.998" viewBox="0 0 12 11.998">
  <g id="share-" transform="translate(-619.1 -290.002)">
    <path id="Path_1540" data-name="Path 1540" d="M630.646,290h-2.969a.453.453,0,1,0,0,.907h1.874l-4.835,4.835a.454.454,0,0,0,.643.641l4.833-4.834v1.874a.454.454,0,1,0,.908,0v-2.969A.454.454,0,0,0,630.646,290Z" fill="#8e8e93"/>
    <path id="Path_1541" data-name="Path 1541" d="M630.974,296.061a.493.493,0,0,0-.985,0h0v.014a4.949,4.949,0,1,1-4.948-4.963h0a.494.494,0,0,0,0-.988h-.007a5.939,5.939,0,1,0,5.946,5.939Z" fill="#8e8e93"/>
  </g>
</svg>
