<svg xmlns="http://www.w3.org/2000/svg" width="16" height="16" viewBox="0 0 16 16">
  <g id="icon-select" transform="translate(9.455 -7.725)">
    <path id="Path_8" data-name="Path 8" d="M14.545,7.225a7.5,7.5,0,1,0,7.5,7.5A7.509,7.509,0,0,0,14.545,7.225Zm0,14.025a6.525,6.525,0,1,1,6.525-6.525,6.532,6.532,0,0,1-6.525,6.525Z" transform="translate(-16 1)" fill="#8e8e93" stroke="#c7c7cc" stroke-width="1"/>
    <path id="Path_9" data-name="Path 9" d="M236.666,316.2a.506.506,0,0,0-.7,0l-4.557,4.419-2.292-2.221a.506.506,0,0,0-.7,0,.469.469,0,0,0,0,.678l2.64,2.559a.346.346,0,0,0,.079.061.5.5,0,0,0,.272.079.51.51,0,0,0,.351-.14.009.009,0,0,0,0-.005l4.9-4.752A.469.469,0,0,0,236.666,316.2Z" transform="translate(-233.997 -303.193)" fill="none" stroke="#c7c7cc" stroke-width="1"/>
  </g>
</svg>
