<svg xmlns="http://www.w3.org/2000/svg" width="55" height="55" viewBox="0 0 55 55">
  <g id="icon-twitter" transform="translate(-78 -640)">
    <circle id="Ellipse_1" data-name="Ellipse 1" cx="27.5" cy="27.5" r="27.5" transform="translate(78 640)" fill="#f1f2f3"/>
    <path id="icon-twitter-2" data-name="icon-twitter" d="M31,11.365a10.456,10.456,0,0,1-2.949.8,5.1,5.1,0,0,0,2.257-2.8,10.34,10.34,0,0,1-3.259,1.225,5.147,5.147,0,0,0-8.869,3.456,5.03,5.03,0,0,0,.134,1.152A14.651,14.651,0,0,1,7.741,9.921a4.961,4.961,0,0,0-.694,2.542,5.029,5.029,0,0,0,2.281,4.2A5.25,5.25,0,0,1,7,16.037V16.1a5.073,5.073,0,0,0,4.113,4.952,5.133,5.133,0,0,1-1.348.181,5.486,5.486,0,0,1-.967-.093,5.134,5.134,0,0,0,4.79,3.508,10.409,10.409,0,0,1-6.37,2.161A10.214,10.214,0,0,1,6,26.734,14.731,14.731,0,0,0,13.86,29,14.376,14.376,0,0,0,28.454,14.632c0-.219-.007-.437-.017-.652A10.054,10.054,0,0,0,31,11.365" transform="translate(87.003 649)" fill="#499cfc"/>
  </g>
</svg>
