<svg xmlns="http://www.w3.org/2000/svg" width="8" height="12.004" viewBox="0 0 8 12.004">
  <g id="MIC" transform="translate(-631.56 -302)">
    <path id="Path_1534" data-name="Path 1534" d="M639.56,307.08V308a4.1,4.1,0,0,1-1.024,2.774A3.826,3.826,0,0,1,636,312.13v.951h1.778a.42.42,0,0,1,.312.137.465.465,0,0,1,0,.649.42.42,0,0,1-.312.137h-4.445a.42.42,0,0,1-.312-.137.465.465,0,0,1,0-.649.418.418,0,0,1,.312-.137h1.778v-.951a3.824,3.824,0,0,1-2.531-1.354A4.093,4.093,0,0,1,631.56,308v-.924a.455.455,0,0,1,.131-.325.428.428,0,0,1,.626,0,.455.455,0,0,1,.131.325V308a3.176,3.176,0,0,0,.913,2.284,3.018,3.018,0,0,0,4.4,0,3.164,3.164,0,0,0,.914-2.283v-.924a.453.453,0,0,1,.131-.325.426.426,0,0,1,.626,0,.454.454,0,0,1,.133.326Z" fill="#8e8e93"/>
    <path id="Path_1535" data-name="Path 1535" d="M637.713,304.309V308a2.309,2.309,0,0,1-.632,1.631,2.045,2.045,0,0,1-3.042,0,2.3,2.3,0,0,1-.633-1.631v-3.694a2.306,2.306,0,0,1,.633-1.631,2.045,2.045,0,0,1,3.042,0,2.312,2.312,0,0,1,.632,1.631Z" transform="translate(0)" fill="#8e8e93"/>
  </g>
</svg>
