<svg xmlns="http://www.w3.org/2000/svg" width="12.003" height="12.337" viewBox="0 0 12.003 12.337">
  <g id="icon" transform="translate(-686.406 -187.625)">
    <g id="Path_1542" data-name="Path 1542" transform="translate(0)" fill="none" stroke-miterlimit="10">
      <path d="M686.964,199.628a.544.544,0,0,1-.386-.166.555.555,0,0,1-.166-.5l.662-3.589a.47.47,0,0,1,.166-.276l6.7-6.709a2.615,2.615,0,1,1,3.7,3.7l-6.674,6.709a.57.57,0,0,1-.276.165l-3.585.663Z" stroke="none"/>
      <path d="M 687.5084838867188 198.53564453125 L 690.33447265625 198.0130615234375 L 696.9291381835938 191.3838653564453 C 697.2383422851562 191.0741729736328 697.4086303710938 190.6681518554688 697.4086303710938 190.2406158447266 C 697.4086303710938 189.8130798339844 697.2383422851562 189.4070892333984 696.9295654296875 189.0977783203125 C 696.6246948242188 188.7927398681641 696.2195434570312 188.624755859375 695.7887573242188 188.624755859375 C 695.3580932617188 188.624755859375 694.9532470703125 188.7926483154297 694.6487426757812 189.0975646972656 L 688.026123046875 195.7276458740234 L 687.5084838867188 198.53564453125 M 687.1021728515625 199.6277465820312 L 686.9639892578125 199.6277465820312 C 686.8264770507812 199.6277465820312 686.688232421875 199.5721740722656 686.578125 199.461669921875 C 686.4398193359375 199.3240814208984 686.3851318359375 199.15869140625 686.4125366210938 198.9648284912109 L 687.0741577148438 195.3757781982422 C 687.1021728515625 195.2653045654297 687.156982421875 195.1548156738281 687.23974609375 195.0999145507812 L 693.9412231445312 188.3908538818359 C 694.9614868164062 187.3694000244141 696.615966796875 187.3694000244141 697.6368408203125 188.3908538818359 C 698.1328735351562 188.8876953125 698.4086303710938 189.5506134033203 698.4086303710938 190.2406158447266 C 698.4086303710938 190.9306488037109 698.1328735351562 191.5935516357422 697.6368408203125 192.0903930664062 L 690.9627075195312 198.7994537353516 C 690.8798828125 198.8821563720703 690.797119140625 198.9377288818359 690.68701171875 198.9648284912109 L 687.1021728515625 199.6277465820312 Z" stroke="none" fill="#8e8e93"/>
    </g>
    <line id="Line_65" data-name="Line 65" x2="4.469" transform="translate(693.418 199.462)" fill="none" stroke="#8e8e93" stroke-linecap="round" stroke-linejoin="round" stroke-width="1"/>
    <line id="Line_66" data-name="Line 66" x2="2" y2="2" transform="translate(693.906 190.112)" fill="none" stroke="#8e8e93" stroke-linecap="square" stroke-linejoin="round" stroke-width="1"/>
  </g>
</svg>
